<svg xmlns="http://www.w3.org/2000/svg" width="900" height="755" viewBox="0 0 900 755" role="img" aria-labelledby="title description">
<title id="title">2016 / 两镜腔选项</title><desc id="description">示意位置不代表原题数值；透明背景，可编辑路径与文字。</desc>
<defs>
<marker id="arrow" viewBox="0 0 10 10" refX="9" refY="5" markerWidth="9" markerHeight="9" markerUnits="userSpaceOnUse" orient="auto-start-reverse"><path d="M1 1 L9 5 L1 9" fill="none" stroke="#302D27" stroke-width="1.3"/></marker>
<marker id="answer-arrow" viewBox="0 0 10 10" refX="9" refY="5" markerWidth="10" markerHeight="10" markerUnits="userSpaceOnUse" orient="auto"><path d="M1 1 L9 5 L1 9" fill="none" stroke="#346D68" stroke-width="1.4"/></marker>
</defs>
<style>
.line {fill:none;stroke:#302D27;stroke-width:1.2;stroke-linejoin:round;stroke-linecap:round;vector-effect:non-scaling-stroke}
.ray {stroke-width:1.5}
.answer {stroke:#346D68;stroke-width:1.5}
text {fill:#302D27;font:28px 'Noto Sans CJK SC','Microsoft YaHei',sans-serif}
.math {font-family:'DejaVu Sans',sans-serif;font-style:italic;font-size:30px}
.heading {font-size:30px;font-weight:600}
.note {font-size:25px}
.number {font-size:25px;fill:#346D68}
.result {fill:#346D68}
.caution {fill:#976333}
</style>
<text x="35" y="45" class="heading" text-anchor="start">2016 / 两镜腔选项</text>
<text x="45" y="115" class="heading" text-anchor="start">A</text>
<path class="line " d="M75,195 L385,195" stroke-dasharray="5 6"/>
<style>
 .secondary{stroke:#976333;stroke-width:1.5}
 @media (prefers-color-scheme:dark){
 .line{stroke:#E8DCC3}text{fill:#E8DCC3}.answer{stroke:#9CCBBB}.result,.number{fill:#9CCBBB}
 .secondary{stroke:#DDB587}.caution{fill:#DDB587}
 #arrow path{stroke:#E8DCC3}#answer-arrow path{stroke:#9CCBBB}
 circle[style]{fill:#E8DCC3!important}
 }
 </style>
<path class="line " d="M 138 130 Q 102 195 138 260" />
<path class="line " d="M335,130 L335,260"/>
<text x="157" y="118" class="math" text-anchor="start">R</text>
<path class="line " d="M120,299 L335,299" marker-end="url(#arrow)" marker-start="url(#arrow)"/>
<path class="line " d="M120,290 L120,308"/>
<path class="line " d="M335,290 L335,308"/>
<text x="227.5" y="335" class="note" text-anchor="middle">L = 0.8R</text>
<text x="480" y="115" class="heading" text-anchor="start">B</text>
<path class="line " d="M510,195 L820,195" stroke-dasharray="5 6"/>
<path class="line " d="M 573 130 Q 537 195 573 260" />
<path class="line " d="M 752 130 Q 788 195 752 260" />
<text x="592" y="118" class="math" text-anchor="start">R</text>
<text x="720" y="118" class="math" text-anchor="start">R</text>
<path class="line " d="M555,299 L770,299" marker-end="url(#arrow)" marker-start="url(#arrow)"/>
<path class="line " d="M555,290 L555,308"/>
<path class="line " d="M770,290 L770,308"/>
<text x="662.5" y="335" class="note" text-anchor="middle">L = 0.5R</text>
<text x="45" y="410" class="heading" text-anchor="start">C</text>
<path class="line " d="M75,490 L385,490" stroke-dasharray="5 6"/>
<path class="line " d="M 138 425 Q 102 490 138 555" />
<path class="line " d="M 351 445 Q 319 490 351 535" />
<text x="157" y="413" class="math" text-anchor="start">R₂</text>
<text x="350" y="428" class="math" text-anchor="start">R₁</text>
<path class="line " d="M120,594 L335,594" marker-end="url(#arrow)" marker-start="url(#arrow)"/>
<path class="line " d="M120,585 L120,603"/>
<path class="line " d="M335,585 L335,603"/>
<text x="227.5" y="630" class="note" text-anchor="middle">L = 0.5R₂</text>
<text x="220" y="690" class="note" text-anchor="middle">R₁ &lt; L</text>
<text x="480" y="410" class="heading" text-anchor="start">D</text>
<path class="line " d="M510,490 L820,490" stroke-dasharray="5 6"/>
<path class="line " d="M 573 425 Q 537 490 573 555" />
<path class="line " d="M 786 445 Q 754 490 786 535" />
<text x="592" y="413" class="math" text-anchor="start">R</text>
<text x="732" y="420" class="note" text-anchor="start">R − L</text>
<path class="line " d="M555,594 L770,594" marker-end="url(#arrow)" marker-start="url(#arrow)"/>
<path class="line " d="M555,585 L555,603"/>
<path class="line " d="M770,585 L770,603"/>
<text x="662.5" y="630" class="note" text-anchor="middle">L = 0.5R</text>
<text x="655" y="690" class="note" text-anchor="middle">两镜共心</text>
</svg>
