<svg xmlns="http://www.w3.org/2000/svg" width="900" height="445" viewBox="0 0 900 445" role="img" aria-labelledby="title description">
<title id="title">2025 / 薄透镜与孔径光阑</title><desc id="description">示意位置不代表原题数值；透明背景，可编辑路径与文字。</desc>
<defs>
<marker id="arrow" viewBox="0 0 10 10" refX="9" refY="5" markerWidth="9" markerHeight="9" markerUnits="userSpaceOnUse" orient="auto-start-reverse"><path d="M1 1 L9 5 L1 9" fill="none" stroke="#302D27" stroke-width="1.3"/></marker>
<marker id="answer-arrow" viewBox="0 0 10 10" refX="9" refY="5" markerWidth="10" markerHeight="10" markerUnits="userSpaceOnUse" orient="auto"><path d="M1 1 L9 5 L1 9" fill="none" stroke="#346D68" stroke-width="1.4"/></marker>
</defs>
<style>
.line {fill:none;stroke:#302D27;stroke-width:1.2;stroke-linejoin:round;stroke-linecap:round;vector-effect:non-scaling-stroke}
.ray {stroke-width:1.5}
.answer {stroke:#346D68;stroke-width:1.5}
text {fill:#302D27;font:28px 'Noto Sans CJK SC','Microsoft YaHei',sans-serif}
.math {font-family:'DejaVu Sans',sans-serif;font-style:italic;font-size:30px}
.heading {font-size:30px;font-weight:600}
.note {font-size:25px}
.number {font-size:25px;fill:#346D68}
.result {fill:#346D68}
.caution {fill:#976333}
</style>
<text x="35" y="45" class="heading" text-anchor="start">2025 / 薄透镜与孔径光阑</text>
<path class="line " d="M40,255 L865,255" stroke-dasharray="5 6"/>
<path class="line " d="M270,116 L270,394"/>
<style>
 .secondary{stroke:#976333;stroke-width:1.5}
 @media (prefers-color-scheme:dark){
 .line{stroke:#E8DCC3}text{fill:#E8DCC3}.answer{stroke:#9CCBBB}.result,.number{fill:#9CCBBB}
 .secondary{stroke:#DDB587}.caution{fill:#DDB587}
 #arrow path{stroke:#E8DCC3}#answer-arrow path{stroke:#9CCBBB}
 circle[style]{fill:#E8DCC3!important}
 }
 </style>
<path class="line " d="M264,126 L270,116 L276,126"/>
<path class="line " d="M264,384 L270,394 L276,384"/>
<text x="270" y="96" class="math" text-anchor="middle">L₁</text>
<path class="line " d="M662,116 L662,394"/>
<path class="line " d="M656,126 L662,116 L668,126"/>
<path class="line " d="M656,384 L662,394 L668,384"/>
<text x="662" y="96" class="math" text-anchor="middle">L₂</text>
<path class="line " d="M505.2,151 L505.2,185"/>
<path class="line " d="M505.2,325 L505.2,359"/>
<circle class="line " cx="505.2" cy="255" r="2.4" style="fill:#302D27;stroke:none"/>
<circle class="line " cx="505.2" cy="255" r="2.4" style="fill:#302D27;stroke:none"/>
<text x="483.2" y="243" class="math" text-anchor="middle">Q</text>
<circle class="line " cx="505.2" cy="185" r="2.4" style="fill:#302D27;stroke:none"/>
<text x="530.2" y="175" class="math" text-anchor="middle">Q₁</text>
<circle class="line " cx="505.2" cy="325" r="2.4" style="fill:#302D27;stroke:none"/>
<text x="533.2" y="354" class="math" text-anchor="middle">Q₂</text>
<circle class="line " cx="158" cy="255" r="2.4" style="fill:#302D27;stroke:none"/>
<text x="158" y="289" class="math" text-anchor="middle">F₁</text>
<circle class="line " cx="382" cy="255" r="2.4" style="fill:#302D27;stroke:none"/>
<text x="382" y="289" class="math" text-anchor="middle">F₁′</text>
<circle class="line " cx="550" cy="255" r="2.4" style="fill:#302D27;stroke:none"/>
<text x="550" y="289" class="math" text-anchor="middle">F₂</text>
<circle class="line " cx="774" cy="255" r="2.4" style="fill:#302D27;stroke:none"/>
<text x="774" y="289" class="math" text-anchor="middle">F₂′</text>
<path class="line ray" d="M830,255 L830,213"/>
<path class="line ray" d="M830,237.36 L830,230.64" marker-end="url(#arrow)"/>
<circle class="line " cx="830" cy="255" r="2.4" style="fill:#302D27;stroke:none"/>
<text x="840" y="285" class="math" text-anchor="middle">A′</text>
<circle class="line " cx="830" cy="213" r="2.4" style="fill:#302D27;stroke:none"/>
<text x="845" y="196" class="math" text-anchor="middle">B′</text>
<text x="40" y="430" class="note" text-anchor="start">保留给定焦点、Q₁QQ₂ 与实像 A′B′。</text>
</svg>
